<?xml version="1.0" encoding="UTF-8"?>
<svg xmlns="http://www.w3.org/2000/svg" viewBox="0 0 240 240" role="img" aria-label="Ilustrace ověřování firmy">
  <defs>
    <linearGradient id="sky" x1="0" y1="0" x2="0" y2="1">
      <stop offset="0%" stop-color="#e0f2fe" />
      <stop offset="100%" stop-color="#bae6fd" />
    </linearGradient>
    <linearGradient id="building" x1="0" y1="0" x2="0" y2="1">
      <stop offset="0%" stop-color="#0ea5e9" />
      <stop offset="100%" stop-color="#0369a1" />
    </linearGradient>
    <linearGradient id="building2" x1="0" y1="0" x2="0" y2="1">
      <stop offset="0%" stop-color="#38bdf8" />
      <stop offset="100%" stop-color="#0284c7" />
    </linearGradient>
  </defs>
  <circle cx="120" cy="120" r="110" fill="url(#sky)" />
  <!-- ground -->
  <ellipse cx="120" cy="200" rx="95" ry="10" fill="#0c4a6e" opacity="0.15" />
  <!-- back building -->
  <rect x="65" y="85" width="55" height="110" rx="4" fill="url(#building2)" />
  <g fill="#e0f2fe" opacity="0.85">
    <rect x="73" y="95"  width="8" height="8" rx="1" />
    <rect x="85" y="95"  width="8" height="8" rx="1" />
    <rect x="97" y="95"  width="8" height="8" rx="1" />
    <rect x="109" y="95" width="6" height="8" rx="1" />
    <rect x="73" y="110" width="8" height="8" rx="1" />
    <rect x="85" y="110" width="8" height="8" rx="1" />
    <rect x="97" y="110" width="8" height="8" rx="1" />
    <rect x="109" y="110" width="6" height="8" rx="1" />
    <rect x="73" y="125" width="8" height="8" rx="1" />
    <rect x="85" y="125" width="8" height="8" rx="1" />
    <rect x="97" y="125" width="8" height="8" rx="1" />
    <rect x="109" y="125" width="6" height="8" rx="1" />
    <rect x="73" y="140" width="8" height="8" rx="1" />
    <rect x="85" y="140" width="8" height="8" rx="1" />
    <rect x="97" y="140" width="8" height="8" rx="1" />
    <rect x="109" y="140" width="6" height="8" rx="1" />
    <rect x="73" y="155" width="8" height="8" rx="1" />
    <rect x="85" y="155" width="8" height="8" rx="1" />
    <rect x="97" y="155" width="8" height="8" rx="1" />
    <rect x="109" y="155" width="6" height="8" rx="1" />
  </g>
  <!-- front building -->
  <rect x="115" y="105" width="65" height="90" rx="4" fill="url(#building)" />
  <rect x="135" y="170" width="25" height="25" rx="2" fill="#0c4a6e" />
  <g fill="#bae6fd" opacity="0.9">
    <rect x="123" y="115" width="10" height="10" rx="1" />
    <rect x="138" y="115" width="10" height="10" rx="1" />
    <rect x="153" y="115" width="10" height="10" rx="1" />
    <rect x="168" y="115" width="9" height="10" rx="1" />
    <rect x="123" y="135" width="10" height="10" rx="1" />
    <rect x="138" y="135" width="10" height="10" rx="1" />
    <rect x="153" y="135" width="10" height="10" rx="1" />
    <rect x="168" y="135" width="9" height="10" rx="1" />
    <rect x="123" y="155" width="10" height="10" rx="1" />
    <rect x="168" y="155" width="9" height="10" rx="1" />
  </g>
  <!-- check badge -->
  <g transform="translate(165, 60)">
    <circle r="28" fill="#10b981" />
    <circle r="28" fill="none" stroke="#ffffff" stroke-width="3" opacity="0.6" />
    <path d="M -12 0 L -3 9 L 12 -8" fill="none" stroke="#ffffff" stroke-width="5" stroke-linecap="round" stroke-linejoin="round" />
  </g>
  <!-- map pin on ground -->
  <g transform="translate(48, 175)">
    <path d="M 0 0 C -10 -16 -10 -28 0 -28 C 10 -28 10 -16 0 0 Z" fill="#ef4444" />
    <circle cx="0" cy="-19" r="5" fill="#fef2f2" />
  </g>
</svg>
